<mxfile host="app.diagrams.net" modified="2023-05-01T13:14:49.650Z" agent="Mozilla/5.0 (Macintosh; Intel Mac OS X 10_15_7) AppleWebKit/537.36 (KHTML, like Gecko) Chrome/111.0.0.0 Safari/537.36" version="21.2.3" etag="3-7glGvLX7qIhIOHrWBZ" type="github">
  <diagram name="Page-1" id="dKkBnPRYFOb29GdFjrHk">
    <mxGraphModel>
      <root>
        <mxCell id="0" />
        <mxCell id="1" parent="0" />
      </root>
    </mxGraphModel>
  </diagram>
</mxfile>
